<mxfile host="app.diagrams.net" agent="Mozilla/5.0 (Windows NT 10.0; Win64; x64) AppleWebKit/537.36 (KHTML, like Gecko) Chrome/128.0.0.0 Safari/537.36" version="24.7.10">
  <diagram name="Страница — 1" id="nFlIvW7RXUWw04aqbfRn">
    <mxGraphModel dx="989" dy="532" grid="1" gridSize="10" guides="1" tooltips="1" connect="1" arrows="1" fold="1" page="1" pageScale="1" pageWidth="1169" pageHeight="827" math="0" shadow="0">
      <root>
        <mxCell id="0" />
        <mxCell id="1" parent="0" />
        <mxCell id="kq3kGYvFlhLmw1rVurGL-20" style="edgeStyle=orthogonalEdgeStyle;rounded=0;orthogonalLoop=1;jettySize=auto;html=1;flowAnimation=1;entryX=0.649;entryY=0.861;entryDx=0;entryDy=0;entryPerimeter=0;" parent="1" edge="1" target="kq3kGYvFlhLmw1rVurGL-16">
          <mxGeometry relative="1" as="geometry">
            <mxPoint x="460" y="785" as="sourcePoint" />
            <mxPoint x="651" y="556" as="targetPoint" />
            <Array as="points">
              <mxPoint x="531" y="785" />
              <mxPoint x="531" y="760" />
              <mxPoint x="651" y="760" />
            </Array>
          </mxGeometry>
        </mxCell>
        <mxCell id="kq3kGYvFlhLmw1rVurGL-22" style="edgeStyle=orthogonalEdgeStyle;rounded=0;orthogonalLoop=1;jettySize=auto;html=1;flowAnimation=1;" parent="1" edge="1" source="kq3kGYvFlhLmw1rVurGL-16">
          <mxGeometry relative="1" as="geometry">
            <mxPoint x="601" y="536" as="sourcePoint" />
            <mxPoint x="460" y="715" as="targetPoint" />
            <Array as="points">
              <mxPoint x="591" y="740" />
              <mxPoint x="531" y="740" />
              <mxPoint x="531" y="715" />
            </Array>
          </mxGeometry>
        </mxCell>
        <mxCell id="kq3kGYvFlhLmw1rVurGL-16" value="&lt;div&gt;server process 2:&lt;/div&gt;BT_certificate_engine" style="rhombus;whiteSpace=wrap;html=1;fillColor=#f5f5f5;fontColor=#333333;strokeColor=#666666;" parent="1" vertex="1">
          <mxGeometry x="521" y="566" width="200" height="90" as="geometry" />
        </mxCell>
        <mxCell id="kq3kGYvFlhLmw1rVurGL-52" value="" style="html=1;verticalLabelPosition=bottom;labelBackgroundColor=#ffffff;verticalAlign=top;shadow=0;dashed=0;strokeWidth=1;shape=mxgraph.ios7.misc.iphone;strokeColor=#000000;" parent="1" vertex="1">
          <mxGeometry x="10" y="185" width="70" height="120" as="geometry" />
        </mxCell>
        <mxCell id="kq3kGYvFlhLmw1rVurGL-1" value="" style="endArrow=none;html=1;rounded=0;" parent="1" edge="1">
          <mxGeometry width="50" height="50" relative="1" as="geometry">
            <mxPoint x="360.49999999999994" y="672" as="sourcePoint" />
            <mxPoint x="360" y="10" as="targetPoint" />
          </mxGeometry>
        </mxCell>
        <mxCell id="kq3kGYvFlhLmw1rVurGL-2" value="(IN) Хранилище файлов" style="swimlane;whiteSpace=wrap;html=1;fillColor=#ffe6cc;strokeColor=#d79b00;" parent="1" vertex="1">
          <mxGeometry x="260" y="680" width="200" height="140" as="geometry" />
        </mxCell>
        <mxCell id="kq3kGYvFlhLmw1rVurGL-6" style="edgeStyle=orthogonalEdgeStyle;rounded=0;orthogonalLoop=1;jettySize=auto;html=1;entryX=0.5;entryY=0;entryDx=0;entryDy=0;startArrow=classic;startFill=1;" parent="1" source="kq3kGYvFlhLmw1rVurGL-3" target="kq3kGYvFlhLmw1rVurGL-4" edge="1">
          <mxGeometry relative="1" as="geometry" />
        </mxCell>
        <mxCell id="kq3kGYvFlhLmw1rVurGL-3" value="&lt;div&gt;&lt;span style=&quot;background-color: initial;&quot;&gt;@BT_certificate_bot&lt;/span&gt;&lt;br&gt;&lt;/div&gt;" style="shape=process;whiteSpace=wrap;html=1;backgroundOutline=1;fillColor=#E5CCFF;strokeColor=#6c8ebf;gradientColor=#99FFFF;gradientDirection=west;rounded=1;" parent="1" vertex="1">
          <mxGeometry x="90" y="200" width="220" height="90" as="geometry" />
        </mxCell>
        <mxCell id="kq3kGYvFlhLmw1rVurGL-14" style="edgeStyle=orthogonalEdgeStyle;rounded=0;orthogonalLoop=1;jettySize=auto;html=1;entryX=0;entryY=0.5;entryDx=0;entryDy=0;flowAnimation=1;" parent="1" source="kq3kGYvFlhLmw1rVurGL-4" target="kq3kGYvFlhLmw1rVurGL-2" edge="1">
          <mxGeometry relative="1" as="geometry" />
        </mxCell>
        <mxCell id="kq3kGYvFlhLmw1rVurGL-18" value="download" style="edgeLabel;html=1;align=center;verticalAlign=middle;resizable=0;points=[];labelBorderColor=default;" parent="kq3kGYvFlhLmw1rVurGL-14" vertex="1" connectable="0">
          <mxGeometry x="-0.4056" relative="1" as="geometry">
            <mxPoint as="offset" />
          </mxGeometry>
        </mxCell>
        <mxCell id="kq3kGYvFlhLmw1rVurGL-4" value="&lt;div&gt;server process 1:&lt;/div&gt;BT_certificate_bot" style="rhombus;whiteSpace=wrap;html=1;fillColor=#f5f5f5;fontColor=#333333;strokeColor=#666666;" parent="1" vertex="1">
          <mxGeometry x="100" y="440" width="200" height="90" as="geometry" />
        </mxCell>
        <mxCell id="kq3kGYvFlhLmw1rVurGL-11" style="edgeStyle=orthogonalEdgeStyle;rounded=0;orthogonalLoop=1;jettySize=auto;html=1;entryX=0.5;entryY=0;entryDx=0;entryDy=0;startArrow=classic;startFill=1;flowAnimation=0;" parent="1" source="kq3kGYvFlhLmw1rVurGL-7" target="kq3kGYvFlhLmw1rVurGL-3" edge="1">
          <mxGeometry relative="1" as="geometry" />
        </mxCell>
        <mxCell id="kq3kGYvFlhLmw1rVurGL-7" value="&lt;div&gt;&lt;br&gt;&lt;/div&gt;&lt;div&gt;&lt;br&gt;&lt;/div&gt;&lt;div&gt;user 2&lt;/div&gt;" style="shape=actor;whiteSpace=wrap;html=1;gradientColor=#B9E0A5;" parent="1" vertex="1">
          <mxGeometry x="180" y="70" width="40" height="60" as="geometry" />
        </mxCell>
        <mxCell id="kq3kGYvFlhLmw1rVurGL-12" style="edgeStyle=orthogonalEdgeStyle;rounded=0;orthogonalLoop=1;jettySize=auto;html=1;entryX=0.75;entryY=0;entryDx=0;entryDy=0;startArrow=classic;startFill=1;flowAnimation=0;" parent="1" source="kq3kGYvFlhLmw1rVurGL-8" target="kq3kGYvFlhLmw1rVurGL-3" edge="1">
          <mxGeometry relative="1" as="geometry" />
        </mxCell>
        <mxCell id="kq3kGYvFlhLmw1rVurGL-8" value="&lt;div&gt;&lt;br&gt;&lt;/div&gt;&lt;div&gt;&lt;br&gt;&lt;/div&gt;&lt;div&gt;user n&lt;/div&gt;" style="shape=actor;whiteSpace=wrap;html=1;gradientColor=#B9E0A5;" parent="1" vertex="1">
          <mxGeometry x="270" y="70" width="40" height="60" as="geometry" />
        </mxCell>
        <mxCell id="kq3kGYvFlhLmw1rVurGL-10" style="edgeStyle=orthogonalEdgeStyle;rounded=0;orthogonalLoop=1;jettySize=auto;html=1;entryX=0.25;entryY=0;entryDx=0;entryDy=0;startArrow=classic;startFill=1;flowAnimation=0;" parent="1" source="kq3kGYvFlhLmw1rVurGL-9" target="kq3kGYvFlhLmw1rVurGL-3" edge="1">
          <mxGeometry relative="1" as="geometry" />
        </mxCell>
        <mxCell id="kq3kGYvFlhLmw1rVurGL-9" value="&lt;div&gt;&lt;br&gt;&lt;/div&gt;&lt;div&gt;&lt;br&gt;&lt;/div&gt;&lt;div&gt;user 1&lt;/div&gt;" style="shape=actor;whiteSpace=wrap;html=1;gradientColor=#B9E0A5;" parent="1" vertex="1">
          <mxGeometry x="90" y="70" width="40" height="60" as="geometry" />
        </mxCell>
        <mxCell id="kq3kGYvFlhLmw1rVurGL-25" style="edgeStyle=orthogonalEdgeStyle;rounded=0;orthogonalLoop=1;jettySize=auto;html=1;entryX=0.5;entryY=1;entryDx=0;entryDy=0;flowAnimation=1;" parent="1" source="kq3kGYvFlhLmw1rVurGL-16" target="njDAms0orBpvmSmEVXDO-14" edge="1">
          <mxGeometry relative="1" as="geometry" />
        </mxCell>
        <mxCell id="kq3kGYvFlhLmw1rVurGL-39" style="edgeStyle=orthogonalEdgeStyle;rounded=0;orthogonalLoop=1;jettySize=auto;html=1;flowAnimation=1;entryX=0;entryY=0.5;entryDx=0;entryDy=0;exitX=1;exitY=0;exitDx=0;exitDy=0;" parent="1" source="kq3kGYvFlhLmw1rVurGL-16" target="kq3kGYvFlhLmw1rVurGL-38" edge="1">
          <mxGeometry relative="1" as="geometry">
            <Array as="points">
              <mxPoint x="721" y="589" />
              <mxPoint x="791" y="589" />
              <mxPoint x="791" y="611" />
            </Array>
            <mxPoint x="651" y="526" as="sourcePoint" />
            <mxPoint x="761" y="536" as="targetPoint" />
          </mxGeometry>
        </mxCell>
        <mxCell id="kq3kGYvFlhLmw1rVurGL-40" value="&lt;div&gt;move&lt;/div&gt;original file" style="edgeLabel;html=1;align=center;verticalAlign=middle;resizable=0;points=[];labelBorderColor=default;" parent="kq3kGYvFlhLmw1rVurGL-39" vertex="1" connectable="0">
          <mxGeometry x="-0.1709" relative="1" as="geometry">
            <mxPoint x="-9" y="-9" as="offset" />
          </mxGeometry>
        </mxCell>
        <mxCell id="kq3kGYvFlhLmw1rVurGL-27" style="edgeStyle=orthogonalEdgeStyle;rounded=0;orthogonalLoop=1;jettySize=auto;html=1;entryX=0.5;entryY=1;entryDx=0;entryDy=0;flowAnimation=1;fillColor=#dae8fc;strokeColor=#6c8ebf;" parent="1" source="kq3kGYvFlhLmw1rVurGL-24" edge="1">
          <mxGeometry relative="1" as="geometry">
            <mxPoint x="521" y="240" as="targetPoint" />
          </mxGeometry>
        </mxCell>
        <mxCell id="kq3kGYvFlhLmw1rVurGL-24" value="crop" style="rounded=0;whiteSpace=wrap;html=1;fillColor=#dae8fc;strokeColor=#6c8ebf;" parent="1" vertex="1">
          <mxGeometry x="471" y="270" width="100" height="30" as="geometry" />
        </mxCell>
        <mxCell id="-EUlAl6XK9tL0lI9C6Mr-20" style="rounded=0;orthogonalLoop=1;jettySize=auto;html=1;entryX=0.25;entryY=1;entryDx=0;entryDy=0;fillColor=#dae8fc;strokeColor=#6c8ebf;flowAnimation=1;" edge="1" parent="1" target="-EUlAl6XK9tL0lI9C6Mr-11">
          <mxGeometry relative="1" as="geometry">
            <mxPoint x="521" y="240" as="sourcePoint" />
          </mxGeometry>
        </mxCell>
        <mxCell id="-EUlAl6XK9tL0lI9C6Mr-21" style="rounded=0;orthogonalLoop=1;jettySize=auto;html=1;entryX=0.25;entryY=1;entryDx=0;entryDy=0;fillColor=#dae8fc;strokeColor=#6c8ebf;flowAnimation=1;" edge="1" parent="1" target="-EUlAl6XK9tL0lI9C6Mr-13">
          <mxGeometry relative="1" as="geometry">
            <mxPoint x="521" y="240" as="sourcePoint" />
          </mxGeometry>
        </mxCell>
        <mxCell id="kq3kGYvFlhLmw1rVurGL-31" style="edgeStyle=orthogonalEdgeStyle;rounded=0;orthogonalLoop=1;jettySize=auto;html=1;entryX=0;entryY=0.5;entryDx=0;entryDy=0;flowAnimation=1;exitX=0.5;exitY=0;exitDx=0;exitDy=0;fillColor=#f8cecc;strokeColor=#b85450;" parent="1" source="-EUlAl6XK9tL0lI9C6Mr-27" target="kq3kGYvFlhLmw1rVurGL-30" edge="1">
          <mxGeometry relative="1" as="geometry">
            <Array as="points">
              <mxPoint x="676" y="50" />
              <mxPoint x="781" y="50" />
              <mxPoint x="781" y="70" />
            </Array>
          </mxGeometry>
        </mxCell>
        <mxCell id="kq3kGYvFlhLmw1rVurGL-30" value="run_chat" style="shape=hexagon;perimeter=hexagonPerimeter2;whiteSpace=wrap;html=1;fixedSize=1;gradientColor=#8F8F8F;" parent="1" vertex="1">
          <mxGeometry x="841" y="30" width="120" height="80" as="geometry" />
        </mxCell>
        <mxCell id="kq3kGYvFlhLmw1rVurGL-37" style="edgeStyle=orthogonalEdgeStyle;rounded=0;orthogonalLoop=1;jettySize=auto;html=1;flowAnimation=1;entryX=0.5;entryY=0;entryDx=0;entryDy=0;" parent="1" source="kq3kGYvFlhLmw1rVurGL-32" target="-EUlAl6XK9tL0lI9C6Mr-36" edge="1">
          <mxGeometry relative="1" as="geometry">
            <mxPoint x="901" y="314" as="targetPoint" />
          </mxGeometry>
        </mxCell>
        <mxCell id="kq3kGYvFlhLmw1rVurGL-32" value="JSON" style="shape=note;whiteSpace=wrap;html=1;backgroundOutline=1;darkOpacity=0.05;gradientColor=#FFFF9C;fillColor=#E8B3E1;" parent="1" vertex="1">
          <mxGeometry x="861" y="150" width="80" height="100" as="geometry" />
        </mxCell>
        <mxCell id="kq3kGYvFlhLmw1rVurGL-34" value="&lt;div style=&quot;font-size: 9px;&quot;&gt;&lt;font style=&quot;font-size: 9px;&quot;&gt;{&lt;/font&gt;&lt;/div&gt;&lt;div style=&quot;font-size: 9px;&quot;&gt;&lt;font style=&quot;font-size: 9px;&quot;&gt;&lt;span style=&quot;white-space: pre;&quot;&gt;&#x9;&lt;/span&gt;&quot;Тип документа&quot;: &quot;&quot;,&lt;br&gt;&lt;/font&gt;&lt;/div&gt;&lt;div style=&quot;font-size: 9px;&quot;&gt;&lt;span style=&quot;white-space-collapse: collapse;&quot;&gt;&lt;font style=&quot;font-size: 9px;&quot;&gt;&lt;span style=&quot;white-space-collapse: preserve;&quot;&gt;&#x9;&lt;/span&gt;&quot;&lt;font color=&quot;#ff8000&quot;&gt;Номер документа&lt;/font&gt;&quot;: &quot;&quot;,&lt;/font&gt;&lt;/span&gt;&lt;/div&gt;&lt;div style=&quot;font-size: 9px;&quot;&gt;&lt;span style=&quot;white-space-collapse: collapse;&quot;&gt;&lt;font style=&quot;font-size: 9px;&quot;&gt;&lt;span style=&quot;white-space-collapse: preserve;&quot;&gt;&#x9;&lt;/span&gt;&quot;Номера контейнеров&quot;: [],&lt;/font&gt;&lt;/span&gt;&lt;/div&gt;&lt;div style=&quot;font-size: 9px;&quot;&gt;&lt;span style=&quot;white-space-collapse: collapse;&quot;&gt;&lt;font style=&quot;font-size: 9px;&quot;&gt;&lt;span style=&quot;white-space-collapse: preserve;&quot;&gt;&#x9;&lt;/span&gt;&quot;Судно&quot;: &quot;&quot;,&lt;/font&gt;&lt;/span&gt;&lt;/div&gt;&lt;div style=&quot;font-size: 9px;&quot;&gt;&lt;span style=&quot;white-space-collapse: collapse;&quot;&gt;&lt;font style=&quot;font-size: 9px;&quot;&gt;&lt;span style=&quot;white-space-collapse: preserve;&quot;&gt;&#x9;&lt;/span&gt;&quot;Номер коносамента&quot;: &quot;&quot;,&lt;/font&gt;&lt;/span&gt;&lt;/div&gt;&lt;div style=&quot;font-size: 9px;&quot;&gt;&lt;span style=&quot;white-space-collapse: collapse;&quot;&gt;&lt;font style=&quot;font-size: 9px;&quot;&gt;&lt;span style=&quot;white-space-collapse: preserve;&quot;&gt;&#x9;&lt;/span&gt;&quot;Номера сделок&quot;: &quot;&quot;,&lt;/font&gt;&lt;/span&gt;&lt;/div&gt;&lt;div style=&quot;font-size: 9px;&quot;&gt;&lt;span style=&quot;white-space-collapse: collapse;&quot;&gt;&lt;font style=&quot;font-size: 9px;&quot;&gt;&lt;span style=&quot;white-space-collapse: preserve;&quot;&gt;&#x9;&lt;/span&gt;&quot;Номера таможенных сделок&quot;: &quot;&quot; ,&lt;/font&gt;&lt;/span&gt;&lt;/div&gt;&lt;div style=&quot;font-size: 9px;&quot;&gt;&lt;span style=&quot;white-space-collapse: collapse;&quot;&gt;&lt;font style=&quot;font-size: 9px;&quot;&gt;&lt;span style=&quot;white-space: pre;&quot;&gt;&#x9;&lt;/span&gt;&quot;Номера фсс&quot;: []&lt;/font&gt;&lt;/span&gt;&lt;/div&gt;&lt;div style=&quot;font-size: 9px;&quot;&gt;&lt;font style=&quot;font-size: 9px;&quot;&gt;}&lt;/font&gt;&lt;/div&gt;" style="text;html=1;align=left;verticalAlign=middle;resizable=0;points=[];autosize=1;strokeColor=none;fillColor=none;glass=0;rounded=0;" parent="1" vertex="1">
          <mxGeometry x="961" y="70" width="180" height="120" as="geometry" />
        </mxCell>
        <mxCell id="kq3kGYvFlhLmw1rVurGL-35" style="edgeStyle=orthogonalEdgeStyle;rounded=0;orthogonalLoop=1;jettySize=auto;html=1;entryX=0.5;entryY=0;entryDx=0;entryDy=0;entryPerimeter=0;flowAnimation=1;" parent="1" source="kq3kGYvFlhLmw1rVurGL-30" target="kq3kGYvFlhLmw1rVurGL-32" edge="1">
          <mxGeometry relative="1" as="geometry" />
        </mxCell>
        <mxCell id="kq3kGYvFlhLmw1rVurGL-41" style="edgeStyle=orthogonalEdgeStyle;rounded=0;orthogonalLoop=1;jettySize=auto;html=1;flowAnimation=1;entryX=0.5;entryY=0;entryDx=0;entryDy=0;" parent="1" source="kq3kGYvFlhLmw1rVurGL-38" edge="1" target="kq3kGYvFlhLmw1rVurGL-43">
          <mxGeometry relative="1" as="geometry">
            <mxPoint x="861" y="602.9999999999999" as="targetPoint" />
          </mxGeometry>
        </mxCell>
        <mxCell id="-EUlAl6XK9tL0lI9C6Mr-73" style="edgeStyle=orthogonalEdgeStyle;rounded=0;orthogonalLoop=1;jettySize=auto;html=1;exitX=0.5;exitY=1;exitDx=0;exitDy=0;flowAnimation=1;" edge="1" parent="1" source="-EUlAl6XK9tL0lI9C6Mr-72" target="kq3kGYvFlhLmw1rVurGL-38">
          <mxGeometry relative="1" as="geometry" />
        </mxCell>
        <mxCell id="kq3kGYvFlhLmw1rVurGL-38" value="folder exists?&lt;div&gt;create folder&lt;/div&gt;" style="rounded=0;whiteSpace=wrap;html=1;" parent="1" vertex="1">
          <mxGeometry x="851" y="580" width="100" height="40" as="geometry" />
        </mxCell>
        <mxCell id="kq3kGYvFlhLmw1rVurGL-43" value="OUT" style="swimlane;whiteSpace=wrap;html=1;fillColor=#ffe6cc;strokeColor=#d79b00;" parent="1" vertex="1">
          <mxGeometry x="801" y="670" width="200" height="150" as="geometry" />
        </mxCell>
        <mxCell id="kq3kGYvFlhLmw1rVurGL-44" value="" style="shape=image;verticalLabelPosition=bottom;labelBackgroundColor=default;verticalAlign=top;aspect=fixed;imageAspect=0;image=https://upload.wikimedia.org/wikipedia/commons/thumb/5/59/OneDrive_Folder_Icon.svg/2048px-OneDrive_Folder_Icon.svg.png;strokeWidth=0.5;" parent="kq3kGYvFlhLmw1rVurGL-43" vertex="1">
          <mxGeometry x="15" y="30" width="30" height="30" as="geometry" />
        </mxCell>
        <mxCell id="kq3kGYvFlhLmw1rVurGL-45" value="&lt;font face=&quot;Courier New&quot;&gt;Untitled&lt;/font&gt;" style="text;html=1;align=center;verticalAlign=middle;resizable=0;points=[];autosize=1;strokeColor=none;fillColor=none;" parent="kq3kGYvFlhLmw1rVurGL-43" vertex="1">
          <mxGeometry x="40" y="30" width="80" height="30" as="geometry" />
        </mxCell>
        <mxCell id="kq3kGYvFlhLmw1rVurGL-46" value="" style="shape=image;verticalLabelPosition=bottom;labelBackgroundColor=default;verticalAlign=top;aspect=fixed;imageAspect=0;image=https://upload.wikimedia.org/wikipedia/commons/thumb/5/59/OneDrive_Folder_Icon.svg/2048px-OneDrive_Folder_Icon.svg.png;strokeWidth=0.5;" parent="kq3kGYvFlhLmw1rVurGL-43" vertex="1">
          <mxGeometry x="15" y="70" width="30" height="30" as="geometry" />
        </mxCell>
        <mxCell id="kq3kGYvFlhLmw1rVurGL-47" value="&lt;font face=&quot;Courier New&quot;&gt;Transaction 1&lt;/font&gt;" style="text;html=1;align=center;verticalAlign=middle;resizable=0;points=[];autosize=1;strokeColor=none;fillColor=none;" parent="kq3kGYvFlhLmw1rVurGL-43" vertex="1">
          <mxGeometry x="40" y="70" width="120" height="30" as="geometry" />
        </mxCell>
        <mxCell id="kq3kGYvFlhLmw1rVurGL-48" value="" style="shape=image;verticalLabelPosition=bottom;labelBackgroundColor=default;verticalAlign=top;aspect=fixed;imageAspect=0;image=https://upload.wikimedia.org/wikipedia/commons/thumb/5/59/OneDrive_Folder_Icon.svg/2048px-OneDrive_Folder_Icon.svg.png;strokeWidth=0.5;" parent="kq3kGYvFlhLmw1rVurGL-43" vertex="1">
          <mxGeometry x="15" y="110" width="30" height="30" as="geometry" />
        </mxCell>
        <mxCell id="kq3kGYvFlhLmw1rVurGL-49" value="&lt;font face=&quot;Courier New&quot;&gt;Transaction n&lt;/font&gt;" style="text;html=1;align=center;verticalAlign=middle;resizable=0;points=[];autosize=1;strokeColor=none;fillColor=none;" parent="kq3kGYvFlhLmw1rVurGL-43" vertex="1">
          <mxGeometry x="40" y="110" width="120" height="30" as="geometry" />
        </mxCell>
        <mxCell id="kq3kGYvFlhLmw1rVurGL-50" value="..." style="text;html=1;align=center;verticalAlign=middle;resizable=0;points=[];autosize=1;strokeColor=none;fillColor=none;" parent="kq3kGYvFlhLmw1rVurGL-43" vertex="1">
          <mxGeometry x="90" y="90" width="30" height="30" as="geometry" />
        </mxCell>
        <mxCell id="kq3kGYvFlhLmw1rVurGL-51" value="" style="html=1;verticalLabelPosition=bottom;align=center;labelBackgroundColor=#ffffff;verticalAlign=top;strokeWidth=2;strokeColor=#000000;shadow=0;dashed=0;shape=mxgraph.ios7.icons.pointer;gradientColor=#33FFFF;" parent="1" vertex="1">
          <mxGeometry x="25" y="230" width="40" height="30" as="geometry" />
        </mxCell>
        <mxCell id="tVhSA4Isbbz2kF50FV48-4" value="IN" style="swimlane;whiteSpace=wrap;html=1;fillColor=#ffe6cc;strokeColor=#d79b00;" parent="1" vertex="1">
          <mxGeometry x="1230" y="100" width="200" height="200" as="geometry" />
        </mxCell>
        <mxCell id="tVhSA4Isbbz2kF50FV48-5" value="file_1.pdf&lt;div&gt;file_2.jpeg&lt;/div&gt;&lt;div&gt;file_3.pdf&lt;/div&gt;&lt;div&gt;...&lt;/div&gt;&lt;div&gt;file_n&lt;/div&gt;" style="text;html=1;align=left;verticalAlign=middle;resizable=0;points=[];autosize=1;strokeColor=none;fillColor=none;" parent="tVhSA4Isbbz2kF50FV48-4" vertex="1">
          <mxGeometry x="10" y="40" width="80" height="90" as="geometry" />
        </mxCell>
        <mxCell id="tVhSA4Isbbz2kF50FV48-6" value="EDITED" style="swimlane;whiteSpace=wrap;html=1;fillColor=#ffe6cc;strokeColor=#d79b00;opacity=30;" parent="1" vertex="1">
          <mxGeometry x="1230" y="310" width="200" height="200" as="geometry" />
        </mxCell>
        <mxCell id="tVhSA4Isbbz2kF50FV48-9" value="file_1(pdf)" style="swimlane;whiteSpace=wrap;html=1;fillColor=#ffe6cc;strokeColor=#d79b00;startSize=20;opacity=30;" parent="tVhSA4Isbbz2kF50FV48-6" vertex="1">
          <mxGeometry x="10" y="30" width="120" height="70" as="geometry" />
        </mxCell>
        <mxCell id="tVhSA4Isbbz2kF50FV48-11" value="file_1.jpg&lt;div&gt;file_1_APDX.jpg&lt;/div&gt;&lt;div&gt;main_file.txt&lt;/div&gt;" style="text;html=1;align=left;verticalAlign=middle;resizable=0;points=[];autosize=1;strokeColor=none;fillColor=none;opacity=30;" parent="tVhSA4Isbbz2kF50FV48-9" vertex="1">
          <mxGeometry x="10" y="15" width="110" height="60" as="geometry" />
        </mxCell>
        <mxCell id="tVhSA4Isbbz2kF50FV48-10" value="file_2(jpeg)" style="swimlane;whiteSpace=wrap;html=1;fillColor=#ffe6cc;strokeColor=#d79b00;startSize=20;opacity=30;" parent="tVhSA4Isbbz2kF50FV48-6" vertex="1">
          <mxGeometry x="10" y="120" width="120" height="75" as="geometry" />
        </mxCell>
        <mxCell id="tVhSA4Isbbz2kF50FV48-12" value="file_1.jpg&lt;div&gt;&lt;span style=&quot;background-color: initial;&quot;&gt;main_file.txt&lt;/span&gt;&lt;br&gt;&lt;/div&gt;" style="text;html=1;align=left;verticalAlign=middle;resizable=0;points=[];autosize=1;strokeColor=none;fillColor=none;opacity=30;" parent="tVhSA4Isbbz2kF50FV48-10" vertex="1">
          <mxGeometry x="10" y="25" width="90" height="40" as="geometry" />
        </mxCell>
        <mxCell id="tVhSA4Isbbz2kF50FV48-13" value="OUT" style="swimlane;whiteSpace=wrap;html=1;fillColor=#ffe6cc;strokeColor=#d79b00;" parent="1" vertex="1">
          <mxGeometry x="1440" y="100" width="200" height="200" as="geometry" />
        </mxCell>
        <mxCell id="njDAms0orBpvmSmEVXDO-1" value="0_Нераспознанные" style="swimlane;whiteSpace=wrap;html=1;fillColor=#ffe6cc;strokeColor=#d79b00;startSize=20;" parent="tVhSA4Isbbz2kF50FV48-13" vertex="1">
          <mxGeometry x="10" y="30" width="160" height="70" as="geometry" />
        </mxCell>
        <mxCell id="njDAms0orBpvmSmEVXDO-2" value="file_1.pdf&lt;div&gt;file_2.jpg&lt;br&gt;&lt;/div&gt;" style="text;html=1;align=left;verticalAlign=middle;resizable=0;points=[];autosize=1;strokeColor=none;fillColor=none;" parent="njDAms0orBpvmSmEVXDO-1" vertex="1">
          <mxGeometry x="10" y="25" width="70" height="40" as="geometry" />
        </mxCell>
        <mxCell id="njDAms0orBpvmSmEVXDO-3" value="ТБ-12345" style="swimlane;whiteSpace=wrap;html=1;fillColor=#ffe6cc;strokeColor=#d79b00;startSize=20;" parent="tVhSA4Isbbz2kF50FV48-13" vertex="1">
          <mxGeometry x="10" y="105" width="160" height="70" as="geometry" />
        </mxCell>
        <mxCell id="njDAms0orBpvmSmEVXDO-4" value="&lt;div&gt;780865310322024.pdf&lt;/div&gt;&lt;div&gt;&lt;span style=&quot;background-color: initial;&quot;&gt;790515003393011&lt;/span&gt;.jpg&lt;/div&gt;" style="text;html=1;align=left;verticalAlign=middle;resizable=0;points=[];autosize=1;strokeColor=none;fillColor=none;" parent="njDAms0orBpvmSmEVXDO-3" vertex="1">
          <mxGeometry x="10" y="25" width="140" height="40" as="geometry" />
        </mxCell>
        <mxCell id="tVhSA4Isbbz2kF50FV48-16" value="logs" style="swimlane;whiteSpace=wrap;html=1;fillColor=#ffe6cc;strokeColor=#d79b00;opacity=30;" parent="1" vertex="1">
          <mxGeometry x="1440" y="310" width="200" height="200" as="geometry" />
        </mxCell>
        <mxCell id="tVhSA4Isbbz2kF50FV48-22" value="run_date_1" style="swimlane;whiteSpace=wrap;html=1;fillColor=#ffe6cc;strokeColor=#d79b00;startSize=20;opacity=30;" parent="1" vertex="1">
          <mxGeometry x="1450" y="350" width="120" height="105" as="geometry" />
        </mxCell>
        <mxCell id="tVhSA4Isbbz2kF50FV48-23" value="file_1.pdf&lt;div&gt;file_1.json&lt;/div&gt;&lt;div&gt;-------------&lt;/div&gt;&lt;div&gt;file_2.jpeg&lt;/div&gt;&lt;div&gt;file_2.json&lt;/div&gt;" style="text;html=1;align=left;verticalAlign=middle;resizable=0;points=[];autosize=1;strokeColor=none;fillColor=none;opacity=30;" parent="tVhSA4Isbbz2kF50FV48-22" vertex="1">
          <mxGeometry x="10" y="15" width="80" height="90" as="geometry" />
        </mxCell>
        <mxCell id="njDAms0orBpvmSmEVXDO-6" style="edgeStyle=orthogonalEdgeStyle;rounded=0;orthogonalLoop=1;jettySize=auto;html=1;flowAnimation=1;fontColor=#3399FF;fillColor=#dae8fc;strokeColor=#6c8ebf;" parent="1" edge="1">
          <mxGeometry relative="1" as="geometry">
            <mxPoint x="521" y="396.83" as="targetPoint" />
            <mxPoint x="681" y="396.83" as="sourcePoint" />
          </mxGeometry>
        </mxCell>
        <mxCell id="njDAms0orBpvmSmEVXDO-7" value="&lt;font style=&quot;font-size: 9px;&quot;&gt;scanned&lt;/font&gt;" style="edgeLabel;html=1;align=center;verticalAlign=middle;resizable=0;points=[];fontColor=#007FFF;" parent="njDAms0orBpvmSmEVXDO-6" vertex="1" connectable="0">
          <mxGeometry x="-0.2873" relative="1" as="geometry">
            <mxPoint x="37" y="-10" as="offset" />
          </mxGeometry>
        </mxCell>
        <mxCell id="njDAms0orBpvmSmEVXDO-9" style="edgeStyle=orthogonalEdgeStyle;rounded=0;orthogonalLoop=1;jettySize=auto;html=1;flowAnimation=1;exitX=0.5;exitY=0;exitDx=0;exitDy=0;fillColor=#f8cecc;strokeColor=#b85450;entryX=0.5;entryY=1;entryDx=0;entryDy=0;" parent="1" source="njDAms0orBpvmSmEVXDO-5" target="W8CIVgpLSEFgTAD0cFvs-2" edge="1">
          <mxGeometry relative="1" as="geometry">
            <mxPoint x="651" y="246" as="targetPoint" />
            <Array as="points" />
          </mxGeometry>
        </mxCell>
        <mxCell id="njDAms0orBpvmSmEVXDO-10" value="&lt;font style=&quot;font-size: 9px;&quot;&gt;digital&lt;/font&gt;" style="edgeLabel;html=1;align=center;verticalAlign=middle;resizable=0;points=[];fontColor=#B85450;" parent="njDAms0orBpvmSmEVXDO-9" vertex="1" connectable="0">
          <mxGeometry x="-0.6" y="-2" relative="1" as="geometry">
            <mxPoint x="18" y="16" as="offset" />
          </mxGeometry>
        </mxCell>
        <mxCell id="njDAms0orBpvmSmEVXDO-5" value="&lt;font style=&quot;font-size: 10px;&quot;&gt;is_scanned?&lt;/font&gt;" style="rhombus;whiteSpace=wrap;html=1;fillColor=#f8cecc;strokeColor=#b85450;" parent="1" vertex="1">
          <mxGeometry x="681" y="367" width="80" height="60" as="geometry" />
        </mxCell>
        <mxCell id="njDAms0orBpvmSmEVXDO-15" style="edgeStyle=orthogonalEdgeStyle;rounded=0;orthogonalLoop=1;jettySize=auto;html=1;entryX=0.5;entryY=1;entryDx=0;entryDy=0;flowAnimation=1;fillColor=#f8cecc;strokeColor=#b85450;" parent="1" source="njDAms0orBpvmSmEVXDO-14" target="njDAms0orBpvmSmEVXDO-5" edge="1">
          <mxGeometry relative="1" as="geometry">
            <mxPoint x="721" y="422" as="targetPoint" />
          </mxGeometry>
        </mxCell>
        <mxCell id="njDAms0orBpvmSmEVXDO-17" value="&lt;font style=&quot;font-size: 9px;&quot;&gt;pdf&lt;/font&gt;" style="edgeLabel;html=1;align=center;verticalAlign=middle;resizable=0;points=[];fontColor=#B85450;" parent="njDAms0orBpvmSmEVXDO-15" vertex="1" connectable="0">
          <mxGeometry x="-0.3071" relative="1" as="geometry">
            <mxPoint x="-15" y="-10" as="offset" />
          </mxGeometry>
        </mxCell>
        <mxCell id="njDAms0orBpvmSmEVXDO-16" style="edgeStyle=orthogonalEdgeStyle;rounded=0;orthogonalLoop=1;jettySize=auto;html=1;entryX=0.5;entryY=1;entryDx=0;entryDy=0;flowAnimation=1;fillColor=#dae8fc;strokeColor=#6c8ebf;" parent="1" source="njDAms0orBpvmSmEVXDO-14" target="kq3kGYvFlhLmw1rVurGL-24" edge="1">
          <mxGeometry relative="1" as="geometry" />
        </mxCell>
        <mxCell id="njDAms0orBpvmSmEVXDO-18" value="&lt;font style=&quot;font-size: 9px;&quot;&gt;image&lt;/font&gt;" style="edgeLabel;html=1;align=center;verticalAlign=middle;resizable=0;points=[];fontColor=#007FFF;" parent="njDAms0orBpvmSmEVXDO-16" vertex="1" connectable="0">
          <mxGeometry x="-0.7176" relative="1" as="geometry">
            <mxPoint x="8" y="-10" as="offset" />
          </mxGeometry>
        </mxCell>
        <mxCell id="njDAms0orBpvmSmEVXDO-14" value="&lt;font style=&quot;font-size: 10px;&quot;&gt;is_pdf?&lt;/font&gt;" style="rhombus;whiteSpace=wrap;html=1;gradientColor=#FF8787;gradientDirection=east;fillColor=#A6E1FF;strokeWidth=1;strokeColor=#666666;" parent="1" vertex="1">
          <mxGeometry x="581" y="462" width="80" height="60" as="geometry" />
        </mxCell>
        <mxCell id="W8CIVgpLSEFgTAD0cFvs-1" value="EDITED" style="swimlane;whiteSpace=wrap;html=1;fillColor=#ffe6cc;strokeColor=#d79b00;" parent="1" vertex="1">
          <mxGeometry x="531" y="10" width="190" height="90" as="geometry" />
        </mxCell>
        <mxCell id="-EUlAl6XK9tL0lI9C6Mr-27" value="&lt;font style=&quot;font-size: 10px;&quot;&gt;digital.pdf&lt;/font&gt;" style="rounded=0;whiteSpace=wrap;html=1;fillColor=#f8cecc;strokeColor=#b85450;" vertex="1" parent="W8CIVgpLSEFgTAD0cFvs-1">
          <mxGeometry x="110" y="50" width="70" height="30" as="geometry" />
        </mxCell>
        <mxCell id="-EUlAl6XK9tL0lI9C6Mr-30" value="&lt;div&gt;&lt;span style=&quot;font-size: 10px; background-color: initial;&quot;&gt;cropped&lt;/span&gt;&lt;/div&gt;&lt;div&gt;&lt;span style=&quot;font-size: 10px; background-color: initial;&quot;&gt;image&lt;/span&gt;&lt;br&gt;&lt;/div&gt;" style="rounded=0;whiteSpace=wrap;html=1;fillColor=#dae8fc;strokeColor=#6c8ebf;" vertex="1" parent="W8CIVgpLSEFgTAD0cFvs-1">
          <mxGeometry x="10" y="50" width="70" height="30" as="geometry" />
        </mxCell>
        <mxCell id="-EUlAl6XK9tL0lI9C6Mr-29" value="" style="endArrow=none;html=1;rounded=0;" edge="1" parent="W8CIVgpLSEFgTAD0cFvs-1">
          <mxGeometry width="50" height="50" relative="1" as="geometry">
            <mxPoint x="94.89999999999998" y="40" as="sourcePoint" />
            <mxPoint x="94.89999999999998" y="90" as="targetPoint" />
          </mxGeometry>
        </mxCell>
        <mxCell id="-EUlAl6XK9tL0lI9C6Mr-17" style="rounded=0;orthogonalLoop=1;jettySize=auto;html=1;entryX=0.75;entryY=1;entryDx=0;entryDy=0;flowAnimation=1;fillColor=#f8cecc;strokeColor=#b85450;" edge="1" parent="1" source="W8CIVgpLSEFgTAD0cFvs-2" target="-EUlAl6XK9tL0lI9C6Mr-15">
          <mxGeometry relative="1" as="geometry" />
        </mxCell>
        <mxCell id="-EUlAl6XK9tL0lI9C6Mr-18" style="rounded=0;orthogonalLoop=1;jettySize=auto;html=1;entryX=0.75;entryY=1;entryDx=0;entryDy=0;flowAnimation=1;fillColor=#f8cecc;strokeColor=#b85450;" edge="1" parent="1" source="W8CIVgpLSEFgTAD0cFvs-2" target="-EUlAl6XK9tL0lI9C6Mr-14">
          <mxGeometry relative="1" as="geometry" />
        </mxCell>
        <mxCell id="-EUlAl6XK9tL0lI9C6Mr-19" style="rounded=0;orthogonalLoop=1;jettySize=auto;html=1;entryX=0.75;entryY=1;entryDx=0;entryDy=0;flowAnimation=1;fillColor=#f8cecc;strokeColor=#b85450;" edge="1" parent="1" source="W8CIVgpLSEFgTAD0cFvs-2" target="-EUlAl6XK9tL0lI9C6Mr-13">
          <mxGeometry relative="1" as="geometry" />
        </mxCell>
        <mxCell id="W8CIVgpLSEFgTAD0cFvs-2" value="&lt;span style=&quot;font-size: 8px;&quot;&gt;document type&lt;/span&gt;&lt;div&gt;&lt;span style=&quot;font-size: 8px;&quot;&gt;TEXT-classifier&lt;/span&gt;&lt;/div&gt;" style="rhombus;whiteSpace=wrap;html=1;fillColor=#f8cecc;strokeColor=#b85450;" parent="1" vertex="1">
          <mxGeometry x="671" y="220" width="100" height="60" as="geometry" />
        </mxCell>
        <mxCell id="W8CIVgpLSEFgTAD0cFvs-3" value="act: digital / scanned&lt;div&gt;conos: digital/ scanned&lt;/div&gt;&lt;div style=&quot;&quot;&gt;PI: digital&lt;/div&gt;&lt;div&gt;zakl: digital&lt;/div&gt;" style="text;html=1;align=left;verticalAlign=middle;resizable=0;points=[];autosize=1;strokeColor=none;fillColor=none;" parent="1" vertex="1">
          <mxGeometry x="370" y="156" width="150" height="70" as="geometry" />
        </mxCell>
        <mxCell id="-EUlAl6XK9tL0lI9C6Mr-4" value="" style="edgeStyle=orthogonalEdgeStyle;orthogonalLoop=1;jettySize=auto;html=1;rounded=0;entryX=1;entryY=0.75;entryDx=0;entryDy=0;exitX=1;exitY=0.25;exitDx=0;exitDy=0;flowAnimation=1;opacity=50;" edge="1" parent="1" source="kq3kGYvFlhLmw1rVurGL-2" target="kq3kGYvFlhLmw1rVurGL-2">
          <mxGeometry width="100" relative="1" as="geometry">
            <mxPoint x="391" y="715.0000000000002" as="sourcePoint" />
            <mxPoint x="391" y="785" as="targetPoint" />
            <Array as="points">
              <mxPoint x="440" y="715" />
              <mxPoint x="440" y="785" />
            </Array>
          </mxGeometry>
        </mxCell>
        <mxCell id="-EUlAl6XK9tL0lI9C6Mr-6" value="&lt;font style=&quot;font-size: 10px;&quot;&gt;Запуск по scheduler&lt;/font&gt;" style="rounded=0;whiteSpace=wrap;html=1;" vertex="1" parent="1">
          <mxGeometry x="541" y="680" width="70" height="30" as="geometry" />
        </mxCell>
        <mxCell id="-EUlAl6XK9tL0lI9C6Mr-7" value="&lt;span style=&quot;font-size: 10px;&quot;&gt;Список файлов в момент вызова&lt;/span&gt;" style="rounded=0;whiteSpace=wrap;html=1;" vertex="1" parent="1">
          <mxGeometry x="621" y="680" width="100" height="30" as="geometry" />
        </mxCell>
        <mxCell id="-EUlAl6XK9tL0lI9C6Mr-9" value="conos / pi / report" style="rounded=0;whiteSpace=wrap;html=1;fillColor=#f8cecc;strokeColor=#b85450;dashed=1;dashPattern=12 12;" vertex="1" parent="1">
          <mxGeometry x="671" y="310" width="100" height="31" as="geometry" />
        </mxCell>
        <mxCell id="-EUlAl6XK9tL0lI9C6Mr-10" value="act / conos" style="rounded=0;whiteSpace=wrap;html=1;fillColor=#dae8fc;strokeColor=#6c8ebf;fillStyle=auto;glass=0;dashed=1;dashPattern=12 12;" vertex="1" parent="1">
          <mxGeometry x="471" y="336" width="100" height="31" as="geometry" />
        </mxCell>
        <mxCell id="-EUlAl6XK9tL0lI9C6Mr-34" style="edgeStyle=orthogonalEdgeStyle;rounded=0;orthogonalLoop=1;jettySize=auto;html=1;entryX=0.5;entryY=1;entryDx=0;entryDy=0;fillColor=#dae8fc;strokeColor=#6c8ebf;flowAnimation=1;" edge="1" parent="1" source="-EUlAl6XK9tL0lI9C6Mr-11" target="-EUlAl6XK9tL0lI9C6Mr-30">
          <mxGeometry relative="1" as="geometry" />
        </mxCell>
        <mxCell id="-EUlAl6XK9tL0lI9C6Mr-11" value="АФК" style="whiteSpace=wrap;html=1;aspect=fixed;" vertex="1" parent="1">
          <mxGeometry x="531" y="150" width="40" height="40" as="geometry" />
        </mxCell>
        <mxCell id="-EUlAl6XK9tL0lI9C6Mr-23" style="edgeStyle=orthogonalEdgeStyle;rounded=0;orthogonalLoop=1;jettySize=auto;html=1;entryX=0.5;entryY=1;entryDx=0;entryDy=0;fillColor=#f8cecc;strokeColor=#b85450;flowAnimation=1;" edge="1" parent="1" target="-EUlAl6XK9tL0lI9C6Mr-27">
          <mxGeometry relative="1" as="geometry">
            <mxPoint x="590.996993006993" y="150" as="sourcePoint" />
            <mxPoint x="665.99" y="80" as="targetPoint" />
            <Array as="points">
              <mxPoint x="611" y="150" />
              <mxPoint x="611" y="120" />
              <mxPoint x="676" y="120" />
            </Array>
          </mxGeometry>
        </mxCell>
        <mxCell id="-EUlAl6XK9tL0lI9C6Mr-35" style="edgeStyle=orthogonalEdgeStyle;rounded=0;orthogonalLoop=1;jettySize=auto;html=1;entryX=0.5;entryY=1;entryDx=0;entryDy=0;fillColor=#dae8fc;strokeColor=#6c8ebf;flowAnimation=1;" edge="1" parent="1" source="-EUlAl6XK9tL0lI9C6Mr-13" target="-EUlAl6XK9tL0lI9C6Mr-30">
          <mxGeometry relative="1" as="geometry" />
        </mxCell>
        <mxCell id="-EUlAl6XK9tL0lI9C6Mr-13" value="Конос." style="whiteSpace=wrap;html=1;aspect=fixed;" vertex="1" parent="1">
          <mxGeometry x="581" y="150" width="40" height="40" as="geometry" />
        </mxCell>
        <mxCell id="-EUlAl6XK9tL0lI9C6Mr-24" style="edgeStyle=orthogonalEdgeStyle;rounded=0;orthogonalLoop=1;jettySize=auto;html=1;entryX=0.5;entryY=1;entryDx=0;entryDy=0;fillColor=#f8cecc;strokeColor=#b85450;flowAnimation=1;" edge="1" parent="1" source="-EUlAl6XK9tL0lI9C6Mr-14" target="-EUlAl6XK9tL0lI9C6Mr-27">
          <mxGeometry relative="1" as="geometry">
            <Array as="points">
              <mxPoint x="651" y="120" />
              <mxPoint x="676" y="120" />
            </Array>
          </mxGeometry>
        </mxCell>
        <mxCell id="-EUlAl6XK9tL0lI9C6Mr-14" value="ПИ" style="whiteSpace=wrap;html=1;aspect=fixed;" vertex="1" parent="1">
          <mxGeometry x="631" y="150" width="40" height="40" as="geometry" />
        </mxCell>
        <mxCell id="-EUlAl6XK9tL0lI9C6Mr-26" style="edgeStyle=orthogonalEdgeStyle;rounded=0;orthogonalLoop=1;jettySize=auto;html=1;entryX=0.5;entryY=1;entryDx=0;entryDy=0;fillColor=#f8cecc;strokeColor=#b85450;flowAnimation=1;" edge="1" parent="1" source="-EUlAl6XK9tL0lI9C6Mr-15" target="-EUlAl6XK9tL0lI9C6Mr-27">
          <mxGeometry relative="1" as="geometry">
            <Array as="points">
              <mxPoint x="701" y="120" />
              <mxPoint x="676" y="120" />
            </Array>
          </mxGeometry>
        </mxCell>
        <mxCell id="-EUlAl6XK9tL0lI9C6Mr-15" value="Закл." style="whiteSpace=wrap;html=1;aspect=fixed;" vertex="1" parent="1">
          <mxGeometry x="681" y="150" width="40" height="40" as="geometry" />
        </mxCell>
        <mxCell id="-EUlAl6XK9tL0lI9C6Mr-33" style="edgeStyle=orthogonalEdgeStyle;rounded=0;orthogonalLoop=1;jettySize=auto;html=1;entryX=0.061;entryY=0.312;entryDx=0;entryDy=0;entryPerimeter=0;fillColor=#dae8fc;strokeColor=#6c8ebf;flowAnimation=1;" edge="1" parent="1" source="-EUlAl6XK9tL0lI9C6Mr-30" target="kq3kGYvFlhLmw1rVurGL-30">
          <mxGeometry relative="1" as="geometry">
            <mxPoint x="790.9999999999998" y="40" as="targetPoint" />
            <Array as="points">
              <mxPoint x="576" y="40" />
              <mxPoint x="791" y="40" />
              <mxPoint x="791" y="55" />
            </Array>
          </mxGeometry>
        </mxCell>
        <mxCell id="-EUlAl6XK9tL0lI9C6Mr-45" style="edgeStyle=orthogonalEdgeStyle;rounded=0;orthogonalLoop=1;jettySize=auto;html=1;entryX=0;entryY=0.5;entryDx=0;entryDy=0;endArrow=none;endFill=0;" edge="1" parent="1" source="-EUlAl6XK9tL0lI9C6Mr-36" target="-EUlAl6XK9tL0lI9C6Mr-39">
          <mxGeometry relative="1" as="geometry" />
        </mxCell>
        <mxCell id="-EUlAl6XK9tL0lI9C6Mr-46" style="edgeStyle=orthogonalEdgeStyle;rounded=0;orthogonalLoop=1;jettySize=auto;html=1;entryX=1;entryY=0.5;entryDx=0;entryDy=0;endArrow=none;endFill=0;" edge="1" parent="1" source="-EUlAl6XK9tL0lI9C6Mr-36" target="-EUlAl6XK9tL0lI9C6Mr-40">
          <mxGeometry relative="1" as="geometry" />
        </mxCell>
        <mxCell id="-EUlAl6XK9tL0lI9C6Mr-76" style="edgeStyle=orthogonalEdgeStyle;rounded=0;orthogonalLoop=1;jettySize=auto;html=1;entryX=0.5;entryY=0;entryDx=0;entryDy=0;endArrow=none;endFill=0;" edge="1" parent="1" source="-EUlAl6XK9tL0lI9C6Mr-36" target="-EUlAl6XK9tL0lI9C6Mr-75">
          <mxGeometry relative="1" as="geometry" />
        </mxCell>
        <mxCell id="-EUlAl6XK9tL0lI9C6Mr-36" value="&lt;span style=&quot;font-size: 10px;&quot;&gt;Тип документа&lt;/span&gt;" style="rhombus;whiteSpace=wrap;html=1;gradientDirection=east;fillColor=#f5f5f5;strokeWidth=1;strokeColor=#666666;fontColor=#333333;" vertex="1" parent="1">
          <mxGeometry x="861" y="291" width="80" height="60" as="geometry" />
        </mxCell>
        <mxCell id="-EUlAl6XK9tL0lI9C6Mr-42" style="edgeStyle=orthogonalEdgeStyle;rounded=0;orthogonalLoop=1;jettySize=auto;html=1;entryX=0.5;entryY=0;entryDx=0;entryDy=0;flowAnimation=1;" edge="1" parent="1" source="-EUlAl6XK9tL0lI9C6Mr-39" target="-EUlAl6XK9tL0lI9C6Mr-44">
          <mxGeometry relative="1" as="geometry">
            <mxPoint x="980.9999999999998" y="371" as="targetPoint" />
          </mxGeometry>
        </mxCell>
        <mxCell id="-EUlAl6XK9tL0lI9C6Mr-39" value="&lt;font style=&quot;font-size: 10px;&quot;&gt;акт&lt;/font&gt;" style="rounded=0;whiteSpace=wrap;html=1;" vertex="1" parent="1">
          <mxGeometry x="951" y="311" width="60" height="20" as="geometry" />
        </mxCell>
        <mxCell id="-EUlAl6XK9tL0lI9C6Mr-41" style="edgeStyle=orthogonalEdgeStyle;rounded=0;orthogonalLoop=1;jettySize=auto;html=1;entryX=0.25;entryY=0;entryDx=0;entryDy=0;flowAnimation=1;" edge="1" parent="1" source="-EUlAl6XK9tL0lI9C6Mr-40" target="kq3kGYvFlhLmw1rVurGL-38">
          <mxGeometry relative="1" as="geometry">
            <mxPoint x="821" y="370.9999999999999" as="targetPoint" />
            <Array as="points">
              <mxPoint x="821" y="560" />
              <mxPoint x="876" y="560" />
            </Array>
          </mxGeometry>
        </mxCell>
        <mxCell id="-EUlAl6XK9tL0lI9C6Mr-40" value="&lt;font style=&quot;font-size: 10px;&quot;&gt;коносамент&lt;/font&gt;" style="rounded=0;whiteSpace=wrap;html=1;" vertex="1" parent="1">
          <mxGeometry x="791" y="311" width="60" height="20" as="geometry" />
        </mxCell>
        <mxCell id="-EUlAl6XK9tL0lI9C6Mr-55" style="edgeStyle=orthogonalEdgeStyle;rounded=0;orthogonalLoop=1;jettySize=auto;html=1;entryX=0.5;entryY=0;entryDx=0;entryDy=0;exitX=1;exitY=0.5;exitDx=0;exitDy=0;flowAnimation=1;" edge="1" parent="1" source="-EUlAl6XK9tL0lI9C6Mr-44" target="-EUlAl6XK9tL0lI9C6Mr-59">
          <mxGeometry relative="1" as="geometry">
            <Array as="points">
              <mxPoint x="1040" y="417" />
              <mxPoint x="1040" y="450" />
              <mxPoint x="1001" y="450" />
            </Array>
          </mxGeometry>
        </mxCell>
        <mxCell id="-EUlAl6XK9tL0lI9C6Mr-69" value="нет" style="edgeLabel;html=1;align=center;verticalAlign=middle;resizable=0;points=[];" vertex="1" connectable="0" parent="-EUlAl6XK9tL0lI9C6Mr-55">
          <mxGeometry x="-0.8796" y="-1" relative="1" as="geometry">
            <mxPoint x="-7" y="-14" as="offset" />
          </mxGeometry>
        </mxCell>
        <mxCell id="-EUlAl6XK9tL0lI9C6Mr-57" style="edgeStyle=orthogonalEdgeStyle;rounded=0;orthogonalLoop=1;jettySize=auto;html=1;entryX=0.75;entryY=0;entryDx=0;entryDy=0;flowAnimation=1;" edge="1" parent="1" source="-EUlAl6XK9tL0lI9C6Mr-44" target="kq3kGYvFlhLmw1rVurGL-38">
          <mxGeometry relative="1" as="geometry">
            <mxPoint x="861" y="410" as="targetPoint" />
            <Array as="points">
              <mxPoint x="926" y="417" />
            </Array>
          </mxGeometry>
        </mxCell>
        <mxCell id="-EUlAl6XK9tL0lI9C6Mr-78" value="да" style="edgeLabel;html=1;align=center;verticalAlign=middle;resizable=0;points=[];" vertex="1" connectable="0" parent="-EUlAl6XK9tL0lI9C6Mr-57">
          <mxGeometry x="-0.9149" relative="1" as="geometry">
            <mxPoint x="3" y="-13" as="offset" />
          </mxGeometry>
        </mxCell>
        <mxCell id="-EUlAl6XK9tL0lI9C6Mr-44" value="&lt;span style=&quot;font-size: 10px;&quot;&gt;Номер ТС&lt;/span&gt;&lt;div&gt;&lt;span style=&quot;font-size: 10px;&quot;&gt;найден?&lt;/span&gt;&lt;/div&gt;" style="rhombus;whiteSpace=wrap;html=1;gradientDirection=east;fillColor=#f5f5f5;strokeWidth=1;strokeColor=#666666;fontColor=#333333;" vertex="1" parent="1">
          <mxGeometry x="941" y="387" width="80" height="60" as="geometry" />
        </mxCell>
        <mxCell id="-EUlAl6XK9tL0lI9C6Mr-60" style="edgeStyle=orthogonalEdgeStyle;rounded=0;orthogonalLoop=1;jettySize=auto;html=1;entryX=0;entryY=0;entryDx=14;entryDy=0;entryPerimeter=0;" edge="1" parent="1" source="-EUlAl6XK9tL0lI9C6Mr-59" target="-EUlAl6XK9tL0lI9C6Mr-61">
          <mxGeometry relative="1" as="geometry">
            <mxPoint x="1031" y="546" as="targetPoint" />
            <Array as="points">
              <mxPoint x="985" y="491" />
            </Array>
          </mxGeometry>
        </mxCell>
        <mxCell id="-EUlAl6XK9tL0lI9C6Mr-59" value="original file" style="rounded=0;whiteSpace=wrap;html=1;" vertex="1" parent="1">
          <mxGeometry x="971" y="469" width="60" height="30" as="geometry" />
        </mxCell>
        <mxCell id="-EUlAl6XK9tL0lI9C6Mr-61" value="&lt;div&gt;&lt;font style=&quot;font-size: 9px;&quot;&gt;appendix&lt;/font&gt;&lt;/div&gt;&lt;font style=&quot;font-size: 9px;&quot;&gt;JSON&lt;/font&gt;" style="shape=note;whiteSpace=wrap;html=1;backgroundOutline=1;darkOpacity=0.05;gradientColor=#FFFF9C;fillColor=#E8B3E1;size=12;" vertex="1" parent="1">
          <mxGeometry x="971" y="516" width="40" height="50" as="geometry" />
        </mxCell>
        <mxCell id="-EUlAl6XK9tL0lI9C6Mr-64" value="&lt;div&gt;&lt;font size=&quot;1&quot;&gt;JSON&lt;/font&gt;&lt;/div&gt;" style="shape=note;whiteSpace=wrap;html=1;backgroundOutline=1;darkOpacity=0.05;gradientColor=#FFFF9C;fillColor=#E8B3E1;size=12;" vertex="1" parent="1">
          <mxGeometry x="1051" y="516" width="40" height="50" as="geometry" />
        </mxCell>
        <mxCell id="-EUlAl6XK9tL0lI9C6Mr-65" value="+" style="text;html=1;align=center;verticalAlign=middle;resizable=0;points=[];autosize=1;strokeColor=none;fillColor=none;" vertex="1" parent="1">
          <mxGeometry x="1016" y="529" width="30" height="30" as="geometry" />
        </mxCell>
        <mxCell id="-EUlAl6XK9tL0lI9C6Mr-72" value="" style="shape=partialRectangle;whiteSpace=wrap;html=1;bottom=1;right=1;left=1;top=0;fillColor=none;routingCenterX=-0.5;" vertex="1" parent="1">
          <mxGeometry x="991" y="566" width="80" height="14" as="geometry" />
        </mxCell>
        <mxCell id="-EUlAl6XK9tL0lI9C6Mr-74" style="edgeStyle=orthogonalEdgeStyle;rounded=0;orthogonalLoop=1;jettySize=auto;html=1;flowAnimation=1;exitX=0.5;exitY=1;exitDx=0;exitDy=0;entryX=0.5;entryY=0;entryDx=0;entryDy=0;" edge="1" parent="1" source="-EUlAl6XK9tL0lI9C6Mr-75" target="kq3kGYvFlhLmw1rVurGL-38">
          <mxGeometry relative="1" as="geometry">
            <mxPoint x="910" y="550" as="targetPoint" />
          </mxGeometry>
        </mxCell>
        <mxCell id="-EUlAl6XK9tL0lI9C6Mr-75" value="&lt;font style=&quot;font-size: 10px;&quot;&gt;прочее&lt;/font&gt;" style="rounded=0;whiteSpace=wrap;html=1;" vertex="1" parent="1">
          <mxGeometry x="871" y="360" width="60" height="20" as="geometry" />
        </mxCell>
        <mxCell id="-EUlAl6XK9tL0lI9C6Mr-77" style="edgeStyle=orthogonalEdgeStyle;rounded=0;orthogonalLoop=1;jettySize=auto;html=1;entryX=0.5;entryY=0;entryDx=0;entryDy=0;entryPerimeter=0;flowAnimation=1;" edge="1" parent="1" source="kq3kGYvFlhLmw1rVurGL-32" target="-EUlAl6XK9tL0lI9C6Mr-64">
          <mxGeometry relative="1" as="geometry" />
        </mxCell>
      </root>
    </mxGraphModel>
  </diagram>
</mxfile>
